<svg id="Camada_1" data-name="Camada 1" xmlns="http://www.w3.org/2000/svg" viewBox="0 0 1223.49 347.86"><defs><style>.cls-1{fill:#332935;}.cls-2{fill:#f28159;}</style></defs><path class="cls-1" d="M392.51,178.49c0-21.34,14.77-35.71,35.84-35.71,20.81,0,35.3,13.83,35.3,35.58v32.48H445.13v-11c-3.49,8.19-11,12.75-20.54,12.75C409.83,212.58,392.51,201.58,392.51,178.49Zm51-.81c0-9.53-6.18-16.1-15.3-16.1s-15.31,6.57-15.31,16.1,6.18,16.11,15.31,16.11S443.52,187.21,443.52,177.68Z"/><path class="cls-1" d="M478.94,115.53h20.14v95.31H478.94Z"/><path class="cls-1" d="M513.71,125.6a12.89,12.89,0,1,1,12.88,12.89A12.56,12.56,0,0,1,513.71,125.6Zm2.82,18.93h20.13v66.31H516.53Z"/><path class="cls-1" d="M552,176.48c0-22.29,13.15-33.7,32.75-33.7s32.75,11.28,32.75,33.7v34.36H597.33V176.48c0-10.48-5.1-14.9-12.62-14.9s-12.62,4.42-12.62,14.9v34.36H552Z"/><path class="cls-1" d="M627.93,177.68c0-20.13,14.76-34.9,35.7-34.9s35.3,14.77,35.3,34.9v5.64H648.87c1.61,7.79,7.51,11.28,14.76,11.28,5.77,0,10.07-1.21,12.62-4.84h20.81c-4.3,13.7-16.92,22.82-33.43,22.82C642.69,212.58,627.93,197.82,627.93,177.68Zm50.33-7.11c-2.28-6.85-7.65-9.8-14.63-9.8s-12.35,3.09-14.36,9.8Z"/><path class="cls-1" d="M706.71,178.49c0-21.34,14.77-35.71,35.84-35.71,20.81,0,35.3,13.83,35.3,35.58v32.48H759.33v-11c-3.49,8.19-11,12.75-20.54,12.75C724,212.58,706.71,201.58,706.71,178.49Zm51-.81c0-9.53-6.18-16.1-15.3-16.1s-15.31,6.57-15.31,16.1,6.18,16.11,15.31,16.11S757.72,187.21,757.72,177.68Z"/><path class="cls-1" d="M793.15,115.53h9v41.88c4.7-9.53,13.56-14.63,25.1-14.63,17.72,0,31.41,10.74,31.41,33.43v34.63h-9V176.21c0-16.38-9.4-25.1-23.76-25.1s-23.76,9-23.76,25.1v34.63h-9Z"/><path class="cls-1" d="M869.11,177.68c0-20.13,14.77-34.9,35.71-34.9s35.43,14.77,35.43,34.9v3H878.37c1.21,13.82,11.55,23.62,26.45,23.62,10.47,0,18.52-4.29,22.82-11.95h9.79c-5.1,12.22-17.18,20.27-32.61,20.27C883.88,212.58,869.11,197.82,869.11,177.68Zm61.75-5.1c-2.15-13.42-12.62-21.47-26-21.47-13.83,0-24.17,8.45-26.18,21.47Z"/><path class="cls-1" d="M948,178.09c0-20.68,14.77-35.31,35.71-35.31s35.57,14.37,35.57,35.31v32.75H1011V194.46c-4.7,11.82-15.71,18.12-28.6,18.12C963.74,212.58,948,199.3,948,178.09Zm62.28-.41c0-15.3-10.73-26.57-26.57-26.57s-26.58,11.27-26.58,26.57,10.74,26.58,26.58,26.58S1010.31,193,1010.31,177.68Z"/><path class="cls-1" d="M1035,115.53h9v95.31h-9Z"/><path class="cls-1" d="M1059.7,186.41V121h9v23.49h39.06v8.19h-39.06v33.69c0,12.08,6.71,17.85,17,17.85s17-5.64,17-17.85v-1.48h8.72v1.48c0,17.45-10.47,26.17-25.77,26.17S1059.7,203.86,1059.7,186.41Z"/><path class="cls-1" d="M1124.93,115.53h9v41.88c4.7-9.53,13.56-14.63,25.1-14.63,17.72,0,31.41,10.74,31.41,33.43v34.63h-9V176.21c0-16.38-9.4-25.1-23.76-25.1s-23.76,9-23.76,25.1v34.63h-9Z"/><path class="cls-2" d="M224.44,29.36H130.82a97.76,97.76,0,0,0-97.76,97.76v93.62a97.75,97.75,0,0,0,97.76,97.75h93.62a97.74,97.74,0,0,0,97.75-97.75V127.12A97.75,97.75,0,0,0,224.44,29.36Zm17.46,79a5.18,5.18,0,0,1-5.18,5.18H225.27v108.3h0a17,17,0,0,1-17-17v-90.8h-17v137.2a16.86,16.86,0,0,1-16.87-16.86v-36h-8.53c-9.22,0-18.44.2-27.65-.07-26.8-.79-48.42-23.17-48.68-50.18C89.25,121,110.18,97.66,137,97c34.25-.78,68.53-.26,102.79-.28.51,0,1,0,2.09,0Z"/><path class="cls-2" d="M140.8,113.69c-19.39.07-34.33,14.81-34.35,33.83s14.94,33.87,34.26,34c9.57.07,19.13,0,28.7,0,1.49,0,3-.22,4.63-.35V113.68C162.64,113.68,151.72,113.65,140.8,113.69Z"/></svg>