<svg width="98" height="98" viewBox="0 0 98 98" fill="none" xmlns="http://www.w3.org/2000/svg">
<g filter="url(#filter0_d_59_95)">
<circle cx="49" cy="45" r="45" fill="url(#paint0_linear_59_95)"/>
</g>
<path d="M68.4118 63.2473C68.0897 64.1037 67.457 64.3864 66.5654 64.3864C54.553 64.3719 42.5406 64.3647 30.5281 64.3647C30.1211 64.3562 29.7203 64.2624 29.3518 64.0892C29.1684 63.9999 29.0142 63.8605 28.9068 63.6871C28.7994 63.5137 28.7433 63.3135 28.7449 63.1096C28.7294 61.8452 28.6414 60.5663 28.7957 59.3184C29.0784 56.9864 30.8771 55.3833 33.2216 55.1762C33.2589 55.1762 33.2951 55.1607 33.3894 55.141V35.2905C33.3894 33.7858 33.9558 32.9988 35.3756 32.5277C35.9969 32.3205 36.6182 32.0938 37.2468 31.9063C37.5368 31.8193 37.6517 31.6992 37.6434 31.374C37.6165 30.3675 37.63 29.3589 37.6341 28.3513C37.6393 27.2287 38.3911 26.4748 39.4981 26.4707C40.5212 26.4707 41.3124 27.2577 41.3331 28.3233C41.3466 29.0316 41.3331 29.7399 41.3331 30.498C41.506 30.4524 41.6438 30.4255 41.768 30.383C44.7981 29.364 47.8302 28.3492 50.855 27.3147C51.2692 27.1749 51.5571 27.2401 51.8626 27.5384C53.563 29.1952 55.2713 30.8473 56.9876 32.4945C57.279 32.7597 57.5098 33.0848 57.6641 33.4474C57.8183 33.81 57.8924 34.2017 57.8812 34.5956C57.8647 36.8304 57.8761 39.0651 57.875 41.2998C57.875 41.4034 57.9102 41.537 57.8585 41.6032C57.7197 41.7813 57.5695 42.004 57.3759 42.0744C57.1097 42.1697 56.8654 42.0081 56.7722 41.7275C56.7271 41.5666 56.7079 41.3995 56.7152 41.2325C56.7152 39.0371 56.7038 36.8407 56.7152 34.6454C56.7259 34.3948 56.6812 34.1449 56.5841 33.9136C56.4871 33.6824 56.3402 33.4754 56.1539 33.3074C54.8253 32.0285 53.4998 30.7382 52.1743 29.4552C52.1029 29.3858 52.0262 29.3205 51.9051 29.2118V43.6547C52.0594 43.6629 52.2157 43.6785 52.3804 43.6785C55.5064 43.6785 58.6324 43.6785 61.7583 43.6785C63.1802 43.6785 63.9092 44.4034 63.9102 45.819V55.1721C64.1505 55.1721 64.3773 55.1669 64.603 55.1721C66.4887 55.2145 67.951 56.4272 68.3403 58.2684C68.3587 58.3275 68.3826 58.3847 68.4118 58.4392V63.2473ZM37.6331 63.1893V62.7513C37.6331 61.5086 37.6331 60.2684 37.6331 59.0305C37.6331 58.1389 37.9893 57.6688 38.8436 57.4285C40.5202 56.9584 42.2092 56.5297 43.8692 56.0109C44.8726 55.7002 45.7207 56.3412 45.698 57.3861C45.6596 59.1807 45.6876 60.9774 45.6876 62.771V63.179H50.6707V49.7437L45.4619 51.4897C44.7163 51.7392 43.9727 51.996 43.2251 52.2384C42.845 52.3616 42.5488 52.227 42.4329 51.907C42.3096 51.5684 42.4691 51.2857 42.873 51.1396C42.933 51.1169 42.9941 51.0961 43.0552 51.0754C45.4991 50.2518 47.9423 49.4265 50.3849 48.5994C50.5071 48.558 50.6955 48.4306 50.6955 48.3385C50.7183 47.4272 50.709 46.5149 50.709 45.5694C50.5619 45.6077 50.4636 45.6284 50.3693 45.6605L45.2361 47.3837C43.0131 48.1314 40.7874 48.878 38.5589 49.6236C38.1001 49.7769 37.7729 49.6567 37.66 49.3067C37.5471 48.9567 37.7408 48.6781 38.2016 48.5207C38.5195 48.4172 38.8374 48.3084 39.1553 48.2018C42.8944 46.9439 46.6341 45.6871 50.3745 44.4313C50.6189 44.3506 50.7235 44.2522 50.7162 43.9767C50.6955 43.2156 50.71 42.4534 50.7069 41.6913C50.7013 41.5871 50.6895 41.4834 50.6717 41.3806C50.5164 41.4282 50.3942 41.4634 50.273 41.5038L40.9976 44.626C40.1781 44.9022 39.3583 45.1752 38.5381 45.4451C38.1001 45.5901 37.7863 45.4752 37.6662 45.1345C37.5461 44.7938 37.7346 44.4924 38.184 44.3361C38.2202 44.3226 38.2585 44.3143 38.2948 44.3019L41.6676 43.1628C44.5671 42.188 47.4625 41.2118 50.3538 40.2342C50.4832 40.1907 50.6872 40.0789 50.6893 39.994C50.7131 39.0713 50.7038 38.1466 50.7038 37.1825C50.5288 37.2353 50.4076 37.2674 50.2896 37.3078L38.7049 41.2108C38.5603 41.2651 38.4103 41.3037 38.2575 41.3257C38.1273 41.3485 37.9934 41.3207 37.883 41.2479C37.7727 41.1751 37.6944 41.0629 37.6641 40.9343C37.572 40.6391 37.6797 40.3989 37.952 40.2477C38.0576 40.1991 38.167 40.1596 38.2793 40.1296C42.3117 38.7724 46.3448 37.4165 50.3787 36.062C50.6261 35.9791 50.7235 35.8756 50.7162 35.6043C50.6955 34.8556 50.71 34.1058 50.708 33.3571C50.708 33.2536 50.6893 33.1407 50.6769 33.0102L50.4563 33.0817L41.0732 36.2308C40.2178 36.5176 39.3676 36.8252 38.5029 37.081C38.274 37.135 38.0329 37.0979 37.8309 36.9774C37.7066 36.8956 37.6165 36.5746 37.6797 36.4389C37.7916 36.23 37.9756 36.0688 38.1974 35.9854C39.67 35.4676 41.1529 34.984 42.6317 34.4869C45.2116 33.6198 47.7898 32.7503 50.3662 31.8784C50.4946 31.8349 50.6955 31.721 50.6976 31.636C50.7214 30.6461 50.7131 29.655 50.7131 28.6226C50.5185 28.6785 50.3724 28.7147 50.2306 28.7634C45.3793 30.3927 40.5278 32.0226 35.6759 33.6533C34.8288 33.9288 34.5492 34.3254 34.5492 35.2346C34.5492 44.4054 34.5492 53.577 34.5492 62.7492V63.1893H37.6331ZM60.438 59.5763C60.438 59.3412 60.4297 59.1362 60.438 58.9311C60.5095 57.4814 61.1567 56.365 62.4294 55.6495C62.6862 55.5045 62.7483 55.3512 62.7473 55.0778C62.738 52.0043 62.7411 48.9298 62.7411 45.8562C62.7411 45.0527 62.534 44.8435 61.7376 44.8435H52.3296C52.1919 44.8435 52.0531 44.8559 51.8947 44.8632V59.5763H60.438ZM51.8875 60.7775V63.1873H60.4121V60.7775H51.8875ZM61.6217 59.568H67.2281C67.34 58.3181 66.9972 57.2825 65.8819 56.6809C64.8277 56.1144 63.7311 56.1517 62.7307 56.8435C61.7842 57.4959 61.515 58.4548 61.6258 59.568H61.6217ZM61.6217 60.7734V63.2142H66.7746C66.99 63.2142 67.2312 63.2018 67.2385 62.9263C67.2582 62.2107 67.2457 61.4941 67.2457 60.7744L61.6217 60.7734ZM44.4967 57.063C43.8257 57.2473 43.1992 57.4317 42.5654 57.586C42.3065 57.6502 42.2216 57.762 42.2247 58.0343C42.2382 59.6353 42.2309 61.2373 42.233 62.8393C42.233 62.9501 42.2485 63.062 42.2579 63.179H44.4967V57.063ZM41.0463 63.1966V58.024C40.397 58.2021 39.7808 58.3771 39.1615 58.5418C38.8954 58.6112 38.7877 58.7489 38.7908 59.0337C38.8032 60.3343 38.7908 61.636 38.7981 62.9377C38.8028 63.0258 38.8121 63.1136 38.826 63.2007L41.0463 63.1966ZM33.3728 60.791H29.8892C29.8892 61.49 29.8892 62.161 29.8892 62.831C29.8892 63.121 30.0518 63.2131 30.3096 63.2131H33.3759L33.3728 60.791ZM29.94 59.5732H33.3573V56.363C31.6548 56.335 30.0259 57.8707 29.94 59.5732V59.5732ZM38.8012 31.3668C39.2299 31.2249 39.6234 31.1089 40.0035 30.9578C40.0513 30.9255 40.091 30.8827 40.1196 30.8325C40.1481 30.7824 40.1647 30.7264 40.1681 30.6688C40.1857 30.1656 40.1774 29.6623 40.1754 29.16C40.1862 28.8493 40.1814 28.5383 40.1609 28.228C40.1458 28.0585 40.0659 27.9013 39.9378 27.7892C39.8097 27.6771 39.6433 27.6188 39.4732 27.6264C39.1098 27.6264 38.8136 27.8459 38.8074 28.1897C38.795 29.2356 38.8012 30.2784 38.8012 31.3668Z" fill="#4F215A"/>
<path d="M40.9479 52.7271C40.865 52.8162 40.7408 53.0481 40.5626 53.1186C39.8564 53.394 39.1346 53.6291 38.4108 53.8559C38.3379 53.8833 38.2602 53.8956 38.1824 53.8921C38.1046 53.8886 38.0283 53.8693 37.9582 53.8354C37.8881 53.8015 37.8256 53.7537 37.7745 53.6949C37.7234 53.6361 37.6848 53.5676 37.661 53.4934C37.5575 53.189 37.7076 52.8856 38.0535 52.7634C38.7556 52.5128 39.4615 52.2746 40.1712 52.0488C40.5792 51.9194 40.9582 52.2011 40.9479 52.7271Z" fill="#4F215A"/>
<path d="M57.2475 54.0481C56.3569 54.0481 55.4663 54.0481 54.5758 54.0481C53.797 54.0481 53.4449 53.6878 53.4366 52.909C53.4366 52.4948 53.4273 52.0806 53.4366 51.6664C53.4542 51.1072 53.8312 50.7012 54.3873 50.6971C56.2982 50.684 58.2088 50.684 60.1191 50.6971C60.3627 50.6898 60.5993 50.7791 60.7774 50.9455C60.9554 51.112 61.0605 51.342 61.0697 51.5856C61.1054 52.1007 61.1054 52.6176 61.0697 53.1327C61.0303 53.7023 60.6555 54.0336 60.0631 54.0419C59.1208 54.0544 58.1784 54.0419 57.2351 54.0419L57.2475 54.0481ZM54.6182 52.8531H59.9078V51.8828H54.6182V52.8531Z" fill="#4F215A"/>
<path d="M57.2402 49.6308C56.3496 49.6308 55.4591 49.636 54.5685 49.6308C53.7918 49.6246 53.4449 49.2663 53.4408 48.4824C53.4408 48.0682 53.4315 47.6539 53.4408 47.2397C53.4594 46.6847 53.8415 46.2808 54.3997 46.2767C56.31 46.2642 58.2205 46.2642 60.1315 46.2767C60.3679 46.2701 60.5975 46.356 60.7716 46.5161C60.9456 46.6763 61.0504 46.898 61.0635 47.1341C61.1044 47.6742 61.1044 48.2167 61.0635 48.7568C61.021 49.3015 60.6389 49.6142 60.058 49.6225C59.1156 49.635 58.1733 49.6225 57.2309 49.6225L57.2402 49.6308ZM54.6192 48.4399H59.914V47.4644H54.6192V48.4399Z" fill="#4F215A"/>
<path d="M55.3348 58.5177C55.0241 58.5177 54.7135 58.5281 54.4028 58.5177C54.2764 58.5185 54.1511 58.4942 54.0342 58.4462C53.9173 58.3982 53.8111 58.3274 53.7218 58.238C53.6325 58.1486 53.5618 58.0423 53.5139 57.9254C53.466 57.8084 53.4419 57.6831 53.4428 57.5567C53.4283 57.0804 53.4283 56.6019 53.4428 56.1245C53.4594 55.5809 53.827 55.1925 54.3686 55.1791C55.0259 55.1591 55.6838 55.1591 56.3424 55.1791C56.4626 55.1783 56.5818 55.2012 56.693 55.2467C56.8043 55.2921 56.9055 55.3591 56.9908 55.4438C57.0761 55.5285 57.1437 55.6292 57.1899 55.7402C57.2361 55.8512 57.2599 55.9702 57.2599 56.0904C57.2816 56.5926 57.2827 57.0969 57.2599 57.5992C57.235 58.1366 56.8457 58.497 56.301 58.5177C55.9851 58.527 55.6579 58.5177 55.3348 58.5177ZM56.0887 57.332V56.3575H54.6317V57.332H56.0887Z" fill="#4F215A"/>
<defs>
<filter id="filter0_d_59_95" x="0" y="0" width="98" height="98" filterUnits="userSpaceOnUse" color-interpolation-filters="sRGB">
<feFlood flood-opacity="0" result="BackgroundImageFix"/>
<feColorMatrix in="SourceAlpha" type="matrix" values="0 0 0 0 0 0 0 0 0 0 0 0 0 0 0 0 0 0 127 0" result="hardAlpha"/>
<feOffset dy="4"/>
<feGaussianBlur stdDeviation="2"/>
<feComposite in2="hardAlpha" operator="out"/>
<feColorMatrix type="matrix" values="0 0 0 0 1 0 0 0 0 0.538399 0 0 0 0 0.375 0 0 0 0.4 0"/>
<feBlend mode="normal" in2="BackgroundImageFix" result="effect1_dropShadow_59_95"/>
<feBlend mode="normal" in="SourceGraphic" in2="effect1_dropShadow_59_95" result="shape"/>
</filter>
<linearGradient id="paint0_linear_59_95" x1="73.7059" y1="77.6471" x2="10.1765" y2="-1.41484e-06" gradientUnits="userSpaceOnUse">
<stop stop-color="#F28159"/>
<stop offset="1" stop-color="#FFA180"/>
</linearGradient>
</defs>
</svg>
