<svg width="98" height="98" viewBox="0 0 98 98" fill="none" xmlns="http://www.w3.org/2000/svg">
<g filter="url(#filter0_d_59_123)">
<circle cx="49" cy="45" r="45" fill="url(#paint0_linear_59_123)"/>
</g>
<path d="M65.9883 60.0106C67.7534 61.3234 68.5316 63.0606 68.3969 65.2405H28.7341C28.6272 64.0153 28.8122 62.834 29.4996 61.812C29.8983 61.2197 30.0085 60.636 30.002 59.9528C29.9775 57.4854 29.9903 55.0169 29.9924 52.5495C29.9924 50.5353 30.7586 48.8736 32.2909 47.5644C32.3822 47.4917 32.4542 47.3977 32.5006 47.2907C32.547 47.1837 32.5664 47.067 32.5571 46.9507C32.5514 42.5611 32.5514 38.1718 32.5571 33.7829V33.2601H42.7904V28.1285H45.3433V26.8606H46.6262V28.0879H47.8995V25.5884H49.1824V28.0954H50.4546V26.8627H51.7375V28.1007H54.3033V33.2323H64.5536V33.723C64.5536 38.0984 64.5518 42.4745 64.5483 46.8513C64.5368 46.9994 64.5618 47.1481 64.6211 47.2843C64.6803 47.4205 64.7721 47.5402 64.8882 47.6328C66.3582 48.9103 67.1001 50.5407 67.113 52.4907C67.1226 53.9981 67.0873 55.5065 67.1237 57.0129C67.1675 58.176 66.912 59.2056 65.9883 60.0106ZM54.8699 49.7613C56.7696 46.4611 59.5738 45.3514 63.2696 46.5145V34.5462H51.7899C51.778 34.5914 51.7698 34.6375 51.7653 34.6841C51.7653 38.4986 51.7653 42.313 51.7749 46.1232C51.7893 46.199 51.8207 46.2706 51.8666 46.3326C51.9125 46.3946 51.9718 46.4455 52.04 46.4814C52.89 46.8887 53.6105 47.4532 54.1076 48.2528C54.4113 48.7457 54.6315 49.2866 54.8677 49.7613H54.8699ZM33.8636 34.5387V46.5434C36.8217 45.3043 40.6629 46.4023 42.2665 49.7816C42.7765 48.9606 42.8203 48.0251 42.815 47.0555C42.7893 43.0432 42.8043 39.031 42.8043 35.0176V34.5344L33.8636 34.5387ZM44.116 31.9729V47.0779C45.1755 46.2868 46.3269 46.0088 47.5798 46.0473C48.5345 46.0741 49.4914 46.0527 50.4856 46.0527V33.2334H53.0129V31.9686L44.116 31.9729ZM41.5182 59.8C41.5182 57.2866 41.5641 54.725 41.5053 52.1657C41.4444 49.5603 39.1683 47.3858 36.563 47.3313C35.875 47.3111 35.1899 47.4295 34.5486 47.6794C33.9073 47.9294 33.3229 48.3058 32.83 48.7863C32.3372 49.2667 31.946 49.8415 31.6799 50.4762C31.4137 51.111 31.2779 51.7928 31.2807 52.481C31.2721 54.8426 31.2807 57.2032 31.2807 59.5637V59.801C32.0942 59.5402 32.8843 59.2665 33.6818 59.0441C33.9555 58.9693 34.0357 58.8057 34.0346 58.5983C34.0212 58.4441 33.9479 58.3013 33.8304 58.2006C33.0008 57.5292 32.5646 56.6718 32.5625 55.6017C32.5625 54.3616 32.5625 53.1211 32.5625 51.8802C32.5625 50.9769 33.05 50.2638 33.8368 49.9933C34.6418 49.7164 35.4629 49.9815 36.0199 50.731C36.2639 51.0814 36.5926 51.3644 36.9755 51.5535C37.3583 51.7427 37.7828 51.8319 38.2094 51.8129C38.8733 51.8 39.5361 51.8129 40.2406 51.8129V52.2405C40.2406 53.2946 40.2256 54.3477 40.2406 55.4018C40.2631 56.5778 39.8451 57.5282 38.9032 58.2487C38.8543 58.292 38.8163 58.3463 38.7924 58.407C38.7684 58.4678 38.7591 58.5333 38.7653 58.5983C38.8081 58.7523 38.9171 58.9597 39.0465 59.0056C39.8568 59.29 40.6789 59.5359 41.5182 59.8ZM64.5739 51.8524C64.5739 53.1236 64.5825 54.3883 64.5739 55.653C64.5643 56.6911 64.1345 57.5314 63.3231 58.1771C63.183 58.284 63.0098 58.3567 63.0847 58.6154C63.1552 58.857 63.2344 59.0153 63.5123 59.0559C63.7903 59.0965 64.0779 59.2259 64.3676 59.2569C64.5799 59.2891 64.797 59.2544 64.9887 59.1574C65.5831 58.7801 65.8611 58.207 65.8611 57.5025C65.8611 55.8486 65.8611 54.1948 65.8611 52.5409C65.8586 52.2346 65.8347 51.9288 65.7895 51.6258C65.4153 49.0664 63.0441 47.1827 60.3981 47.3377C57.8398 47.4874 55.6835 49.6747 55.63 52.2277C55.5937 54.0152 55.6182 55.8027 55.6236 57.5902C55.623 57.8445 55.6751 58.0962 55.7765 58.3295C55.8778 58.5628 56.0263 58.7726 56.2127 58.9458C56.5152 59.2398 56.8316 59.4333 57.2817 59.2301C57.5143 59.1287 57.7615 59.0648 58.014 59.0409C58.3016 59.0099 58.3765 58.8164 58.3743 58.6047C58.3637 58.4506 58.2926 58.3069 58.1765 58.2049C57.4389 57.6169 56.961 56.8653 56.9247 55.9267C56.8733 54.5818 56.9129 53.2337 56.9161 51.8866C56.9161 51.8663 56.9471 51.8471 56.9781 51.8107C57.1641 51.8107 57.364 51.8107 57.5629 51.8107C58.5432 51.7797 59.3418 51.3831 59.9149 50.5877C60.0225 50.426 60.0836 50.2377 60.0913 50.0436C60.1159 49.571 60.0998 49.0963 60.0998 48.6345H61.3827C61.3827 49.1338 61.3742 49.6116 61.3827 50.0895C61.3815 50.2331 61.4184 50.3743 61.4896 50.499C61.9269 51.1404 62.5224 51.5787 63.2899 51.7284C63.6834 51.8054 64.0992 51.8129 64.5686 51.8524H64.5739ZM42.2163 63.9587H54.8966C54.79 63.2236 54.4901 62.5299 54.0275 61.9488C53.2256 60.9065 52.0871 60.497 50.8598 60.2629C50.7764 60.2468 50.6363 60.3698 50.5658 60.4617C50.1381 61.0102 49.7319 61.5693 49.315 62.1231C49.0712 62.4438 48.8221 62.7645 48.5559 63.1173C47.8674 62.199 47.2164 61.3223 46.5514 60.4564C46.4798 60.3623 46.3098 60.2543 46.2189 60.2778C45.6534 60.4254 45.0664 60.5419 44.5458 60.7931C43.2372 61.426 42.4803 62.5037 42.2163 63.9587ZM53.6383 51.3639C53.9836 49.6854 52.5906 47.6563 50.7112 47.4361C49.309 47.2752 47.8933 47.2719 46.4904 47.4264C44.9456 47.5954 43.9749 48.6227 43.5633 50.1184C43.4479 50.5375 43.465 50.9929 43.4297 51.35C44.147 51.2858 44.7724 51.1949 45.4 51.1789C46.4637 51.1533 47.3799 50.8047 48.1293 50.0478C48.2568 49.895 48.3699 49.7307 48.4672 49.5571C48.604 49.6854 48.6286 49.6961 48.6478 49.7143C48.7056 49.7688 48.7644 49.8212 48.8189 49.8821C49.6667 50.8005 50.7154 51.2003 51.962 51.1832C52.5083 51.1714 53.0557 51.2976 53.6383 51.3639ZM33.9673 60.3046C31.7457 60.7172 30.1442 62.2289 30.0876 63.9544H40.835C41.0969 63.1857 41.345 62.4577 41.608 61.6933C40.9045 60.8851 39.9284 60.4906 38.8284 60.3035C38.359 61.4111 37.5594 62.0675 36.3417 62.0461C35.1785 62.0269 34.4173 61.3758 33.9619 60.3046H33.9673ZM46.0083 52.4329C46.0083 53.5779 45.9869 54.6695 46.0147 55.7599C46.0393 56.7435 46.8625 57.5357 47.8514 57.5709C48.3164 57.587 48.7836 57.5848 49.2487 57.5709C49.6719 57.5664 50.0812 57.4188 50.4098 57.1521C50.7385 56.8854 50.9671 56.5153 51.0586 56.102C51.1136 55.7884 51.1355 55.4698 51.1238 55.1516C51.1324 54.2504 51.1238 53.3491 51.1238 52.4287C50.2483 52.3258 49.4128 52.0037 48.6949 51.4921C48.6589 51.4706 48.6184 51.4579 48.5766 51.4551C48.5347 51.4523 48.4928 51.4595 48.4543 51.4761C47.7317 51.9943 46.8907 52.3232 46.0083 52.4329ZM38.9524 53.1353C38.9148 53.1194 38.8758 53.1072 38.8358 53.099C38.7693 53.0947 38.7025 53.0947 38.6359 53.099C37.1018 53.1963 35.8414 52.7098 34.9102 51.4334C34.8033 51.2805 34.4633 51.2056 34.2495 51.2334C33.9608 51.2708 33.8347 51.5381 33.8347 51.8364C33.8347 53.1439 33.8176 54.4514 33.8443 55.7578C33.8646 56.7445 34.6878 57.5399 35.6789 57.5752C36.1578 57.5923 36.641 57.5923 37.1189 57.5752C38.0918 57.5389 38.9085 56.7595 38.9449 55.792C38.9791 54.9132 38.9524 54.0291 38.9524 53.1353ZM60.7733 51.6792C60.3393 52 59.979 52.3207 59.5642 52.5505C59.1494 52.7804 58.663 52.9194 58.1744 53.1107C58.1744 54.0023 58.1338 54.9357 58.1862 55.8625C58.2386 56.7894 59.0575 57.5324 59.9972 57.5731C60.4622 57.5923 60.9294 57.587 61.3955 57.5731C62.3342 57.5506 63.1659 56.8921 63.2461 55.9598C63.3284 54.9977 63.2643 54.0227 63.2643 53.0445C62.3033 52.8847 61.425 52.4033 60.7733 51.6792ZM67.0456 63.963C66.9323 62.1947 65.0807 60.435 63.2686 60.3773C63.1951 61.6535 62.7921 62.8889 62.099 63.963H67.0456ZM53.0247 29.4253H44.1107V30.659H53.0247V29.4253ZM54.3247 55.4296C53.7367 56.0111 53.0952 56.2912 52.3597 56.3073C51.9834 57.355 51.7514 57.6907 51.1014 58.2231C51.0489 58.2711 51.0066 58.3292 50.9769 58.3938C50.9471 58.4584 50.9306 58.5283 50.9282 58.5994C50.9346 58.8079 50.9998 58.9864 51.2831 59.042C52.5414 59.29 53.7089 59.7433 54.6251 60.7076L55.4579 60.0084C54.5342 59.1949 54.2541 58.1536 54.3193 56.9755C54.3471 56.4901 54.3247 56.0015 54.3247 55.4296ZM42.8235 55.4477V60.25C43.5056 59.9293 44.1877 59.5829 44.8911 59.2879C45.2172 59.15 45.5871 59.1147 45.9313 59.0142C46.2136 58.9319 46.3365 58.4476 46.1099 58.2861C45.4373 57.811 44.9628 57.1052 44.7767 56.303C44.4104 56.2989 44.0486 56.2211 43.7131 56.0742C43.3775 55.9272 43.0749 55.7142 42.8235 55.4477ZM58.1755 60.3324C57.0829 60.5205 56.1731 60.9375 55.5145 61.6912L56.2864 63.9587H59.3643C58.6288 62.8415 58.2706 61.6484 58.1755 60.3313V60.3324ZM37.4557 58.8549H35.3303C35.0299 59.6546 35.1294 60.1538 35.6511 60.5323C35.8719 60.6957 36.1406 60.7816 36.4154 60.7766C36.6901 60.7716 36.9555 60.6759 37.1702 60.5045C37.6695 60.1196 37.7582 59.6236 37.4557 58.8549ZM48.5591 60.993C48.9002 60.5376 49.1909 60.1121 49.5213 59.7198C49.7576 59.4407 49.8238 59.1799 49.6196 58.8592H47.3981C47.4238 59.0986 47.3756 59.3616 47.4815 59.5263C47.7926 60.0116 48.1668 60.4628 48.5623 60.9888L48.5591 60.993ZM62.0541 60.125C61.9793 59.6695 61.913 59.2611 61.8478 58.8634H59.5931C59.5332 59.2825 59.4744 59.6898 59.4113 60.125H62.0541ZM59.5386 61.4346L60.6194 63.6337H60.8332L61.9151 61.4346H59.5386ZM52.4228 54.9945C53.1711 54.9538 53.6982 54.4075 53.6821 53.7041C53.6799 53.5413 53.6455 53.3805 53.5809 53.2311C53.5163 53.0816 53.4228 52.9464 53.3058 52.8332C53.1887 52.7201 53.0505 52.6312 52.8989 52.5716C52.7474 52.5121 52.5855 52.4831 52.4228 52.4864V54.9945ZM44.6997 52.4725C43.9514 52.5131 43.4254 53.0551 43.4404 53.7639C43.4427 53.9266 43.4772 54.0871 43.5419 54.2363C43.6066 54.3855 43.7002 54.5205 43.8172 54.6333C43.9343 54.7462 44.0725 54.8348 44.224 54.8941C44.3755 54.9533 44.5372 54.982 44.6997 54.9784V52.4725Z" fill="white"/>
<path d="M60.7615 38.3726H61.9781V39.618H60.7615V38.3726Z" fill="white"/>
<path d="M53.0641 38.3828H54.2925V39.6187H53.0641V38.3828Z" fill="white"/>
<path d="M56.8627 42.1908H55.63V40.9507H56.8584L56.8627 42.1908Z" fill="white"/>
<path d="M58.1957 40.9424H59.4252V42.174H58.1957V40.9424Z" fill="white"/>
<path d="M60.7498 40.9446H61.9781V42.1804H60.7498V40.9446Z" fill="white"/>
<path d="M54.3011 44.748H53.0738V43.5132H54.3011V44.748Z" fill="white"/>
<path d="M55.6353 43.5017H56.8615V44.7472H55.6353V43.5017Z" fill="white"/>
<path d="M58.1957 43.4944H59.4145V44.7399H58.1957V43.4944Z" fill="white"/>
<path d="M61.9889 43.5093V44.7387H60.7531V43.5093H61.9889Z" fill="white"/>
<path d="M60.7615 35.811H61.9781V37.0597H60.7615V35.811Z" fill="white"/>
<path d="M58.1957 35.8159H59.4198V37.0593H58.1957V35.8159Z" fill="white"/>
<path d="M58.184 39.6251V38.3936H59.422V39.6251H58.184Z" fill="white"/>
<path d="M56.8648 39.6254H55.63V38.3853H56.8627L56.8648 39.6254Z" fill="white"/>
<path d="M56.8787 35.8267V37.0508H55.63V35.8267H56.8787Z" fill="white"/>
<path d="M54.3032 37.0647H53.0717V35.8267H54.3032V37.0647Z" fill="white"/>
<path d="M53.0641 42.1847V40.9531H54.3031V42.1847H53.0641Z" fill="white"/>
<path d="M36.3662 42.191H35.1379V40.9456H36.3662V42.191Z" fill="white"/>
<path d="M38.9524 40.9507V42.1726H37.7058V40.9507H38.9524Z" fill="white"/>
<path d="M40.2641 40.9446H41.4989V42.1762H40.2641V40.9446Z" fill="white"/>
<path d="M36.377 43.5093V44.7387H35.1411V43.5093H36.377Z" fill="white"/>
<path d="M37.7058 43.5029H38.9342V44.7484H37.7058V43.5029Z" fill="white"/>
<path d="M40.2523 44.7353V43.5112H41.4967V44.7353H40.2523Z" fill="white"/>
<path d="M40.246 39.6112V38.3936H41.4914V39.6112H40.246Z" fill="white"/>
<path d="M38.9523 38.3884V39.6125H37.7047V38.3884H38.9523Z" fill="white"/>
<path d="M35.1304 39.625V38.3892H36.3737V39.625H35.1304Z" fill="white"/>
<path d="M41.4978 37.0658H40.2651V35.8257H41.4978V37.0658Z" fill="white"/>
<path d="M38.9299 37.0595H37.6962V35.8279H38.9299V37.0595Z" fill="white"/>
<path d="M36.3791 35.831V37.0594H35.1475V35.8289L36.3791 35.831Z" fill="white"/>
<path d="M46.6219 40.9478V42.1761H45.386V40.9478H46.6219Z" fill="white"/>
<path d="M47.9326 42.1738V40.9497H49.177V42.1738H47.9326Z" fill="white"/>
<path d="M46.6177 44.748H45.3904V43.5132H46.6177V44.748Z" fill="white"/>
<path d="M49.1834 43.5093V44.7387H47.9475V43.5093H49.1834Z" fill="white"/>
<path d="M49.1792 39.625H47.9508V38.3892H49.1792V39.625Z" fill="white"/>
<path d="M46.624 38.384V39.6177H45.3839V38.384H46.624Z" fill="white"/>
<path d="M47.9486 35.8203H49.1813V37.0519H47.9486V35.8203Z" fill="white"/>
<path d="M45.3828 35.8213H46.6112V37.0593H45.3828V35.8213Z" fill="white"/>
<path d="M49.1876 33.2727V34.4936H47.9421V33.2695L49.1876 33.2727Z" fill="white"/>
<path d="M46.6251 33.2602V34.4939H45.3828V33.2581L46.6251 33.2602Z" fill="white"/>
<defs>
<filter id="filter0_d_59_123" x="0" y="0" width="98" height="98" filterUnits="userSpaceOnUse" color-interpolation-filters="sRGB">
<feFlood flood-opacity="0" result="BackgroundImageFix"/>
<feColorMatrix in="SourceAlpha" type="matrix" values="0 0 0 0 0 0 0 0 0 0 0 0 0 0 0 0 0 0 127 0" result="hardAlpha"/>
<feOffset dy="4"/>
<feGaussianBlur stdDeviation="2"/>
<feComposite in2="hardAlpha" operator="out"/>
<feColorMatrix type="matrix" values="0 0 0 0 0.600705 0 0 0 0 0.342292 0 0 0 0 0.6625 0 0 0 0.4 0"/>
<feBlend mode="normal" in2="BackgroundImageFix" result="effect1_dropShadow_59_123"/>
<feBlend mode="normal" in="SourceGraphic" in2="effect1_dropShadow_59_123" result="shape"/>
</filter>
<linearGradient id="paint0_linear_59_123" x1="26.0588" y1="6.17647" x2="71.9412" y2="83.8235" gradientUnits="userSpaceOnUse">
<stop stop-color="#4F215A"/>
<stop offset="1" stop-color="#9957A9"/>
</linearGradient>
</defs>
</svg>
